<?xml version="1.0" encoding="utf-8"?>
<!-- Generator: Adobe Illustrator 25.4.1, SVG Export Plug-In . SVG Version: 6.00 Build 0)  -->
<svg version="1.1" id="Camada_1" xmlns="http://www.w3.org/2000/svg" xmlns:xlink="http://www.w3.org/1999/xlink" x="0px" y="0px"
	 viewBox="0 0 540 253.8" style="enable-background:new 0 0 540 253.8;" xml:space="preserve">
<style type="text/css">
	.st0{fill:#f5f3f2;}
</style>
<g>
	<path class="st0" d="M453.9,180.5c-45,2.1-85.7-36.5-89-82.3C360.9,43.9,401.1,1.5,450.4,0C495.2-1.3,538.5,36,540,88
		C541.4,137.1,503.5,178.2,453.9,180.5 M452.8,27.2c-36.7,0.8-62.9,28.7-62,66.3c0.8,34.1,29.5,61.2,64.2,60.5
		c30.9-0.6,59.5-31.1,58.7-62.6C512.8,55.8,485,26.5,452.8,27.2"/>
	<path class="st0" d="M146.8,64.7c-0.2-7.7,2.4-9.4,9.4-9.3c30.1,0.5,60.2,0.6,90.2,0.5c5.3,0,7.6,0.8,7.6,7.1
		c-0.1,19.5,0.2,19.4-19.3,19.4c-18.1,0-36.2,0.2-54.3-0.1c-5.4-0.1-7.5,0.8-7.4,7c0.5,18.7,0.4,37.4,0.1,56.2
		c-0.1,5.5,1.4,7,6.8,6.9c11.9-0.2,23.9,0.6,35.9,0.5c5.9-0.1,8.2,1.5,8.2,8c0,18.3,0.3,18.3-17.8,18.3c-9.3,0-18.7,0-28-0.2
		c-3.7-0.1-5.2,0.2-5.1,4.9c0,0.6,0,1.2,0,1.8c-0.4,17.4-0.4,40.8,16.4,41.1c19,0.3,38,0.7,56.9,0.5c5.8-0.1,7.5,1.6,7.5,7.5
		c0.1,19.2,0.3,19.2-18.7,19c-26.6-0.3-53.1-0.9-79.7-0.8c-6.3,0-7.7-2-7.7-8.1L146.8,64.7z"/>
	<path class="st0" d="M99.7,107c-8.7-0.3-13.2,1.1-14.5-10.8c-0.8-7.1-7.6-11.3-15.8-11c-8.5,0.3-14.1,5-16.4,12.6
		c-2.2,7.2,1,13.4,7.2,17.3c9.3,5.8,19,11,28.3,16.7c17.6,10.9,33.5,23.7,36.8,46.1c3.9,26.8-5.6,48.6-28,64
		c-21.8,15-44.7,15.4-66.9,2.1C7.6,230.5-1.9,209.4,0.3,182.7c0.2-2.2-0.6-5.5,2.7-5.6c8.3-0.3,16.7-0.5,25,0.3
		c4.5,0.5,1.9,4.8,1.7,7.5c-2.4,25.6,21.9,44.5,45.3,35.3c22.8-9,28.4-36.7,10.8-53.2c-10.6-10-24.3-14.9-36.4-22.3
		c-21.3-13.1-30.2-31.5-25.5-54C28.3,69.4,49.3,54.1,72.7,55c21.2,0.9,41.1,18.8,43.3,39C117.4,107.1,117.4,107.1,99.7,107"/>
	<path class="st0" d="M278.7,63.3c-0.2-1-0.7-4.7,1.6-7.1c1.1-1.1,2.9-1.7,5.7-1.8c18.3-0.6,18.2-0.9,18.3,19.1
		c0.2,42.8,0.5,100.7,0.4,143.6c0,6.3,1.7,7.8,7.3,7.8c21.9-0.1,43.9,0.4,65.8,0.4c5,0,7,1,7,7.1c0.1,20.6,0.3,20.5-19.1,20.6
		c-26,0.1-52,0.2-78,0.8c-3.3,0.1-5.5-0.3-6.9-1.6c-2.1-2-2.2-5.4-1.9-7.6L278.7,63.3z"/>
</g>
</svg>
